<svg width="216" height="215" viewBox="0 0 216 215" fill="none" xmlns="http://www.w3.org/2000/svg">
<g clip-path="url(#clip0_2368_34)">
<path d="M202.934 -0.331543L185.637 193.444L107.884 215L30.3449 193.475L13.0657 -0.331543H202.934Z" fill="#004CE8"/>
<path d="M170.828 181.105L185.61 15.5146H108V198.524L170.828 181.105Z" fill="#0065F4"/>
<path d="M52.678 87.395L54.8084 111.164H108L118.224 99.2797L108 87.395H52.678Z" fill="#EBEBEB"/>
<path d="M108 39.2847H107.918H48.3972L50.558 63.0545H108L118.224 51.1693L108 39.2847Z" fill="#EBEBEB"/>
<path d="M108 173.857L118.224 161.252L108 149.127L107.896 149.155L81.4233 142.007L79.731 123.049H66.8675H55.8701L59.2002 160.371L107.89 173.888L108 173.857Z" fill="#EBEBEB"/>
<path d="M137.188 111.164L134.429 141.991L107.918 149.147V173.876L156.647 160.371L157.004 156.355L162.59 93.7777L163.17 87.3949L167.461 39.2847H107.918V63.0545H141.412L139.249 87.3949H107.918V111.164H137.188Z" fill="white"/>
</g>
<defs>
<clipPath id="clip0_2368_34">
<rect width="216" height="215" fill="white"/>
</clipPath>
</defs>
</svg>
